<svg width="141" height="140" viewBox="0 0 141 140" fill="none" xmlns="http://www.w3.org/2000/svg">
<path d="M70.3693 0C31.6009 0 0.136719 31.36 0.136719 70C0.136719 108.64 31.6009 140 70.3693 140C109.138 140 140.602 108.64 140.602 70C140.602 31.36 109.138 0 70.3693 0ZM70.3693 21C82.0279 21 91.439 30.38 91.439 42C91.439 53.62 82.0279 63 70.3693 63C58.7107 63 49.2995 53.62 49.2995 42C49.2995 30.38 58.7107 21 70.3693 21ZM70.3693 120.4C52.8111 120.4 37.2897 111.44 28.2297 97.86C28.4404 83.93 56.3228 76.3 70.3693 76.3C84.3456 76.3 112.298 83.93 112.509 97.86C103.449 111.44 87.9274 120.4 70.3693 120.4Z" fill="white" fill-opacity="0.87"/>
</svg>
