<svg width="21" height="21" viewBox="0 0 21 21" fill="none" xmlns="http://www.w3.org/2000/svg">
<g clip-path="url(#clip0_603_5412)">
<path d="M2.77162 3.62856V1.05713H4.48591V3.62856H7.05734V5.34284H4.48591V7.91427H2.77162V5.34284H0.200195V3.62856H2.77162ZM5.34305 8.77141V6.19999H7.91448V3.62856H13.9145L15.4831 5.34284H18.2002C19.1431 5.34284 19.9145 6.11427 19.9145 7.05713V17.3428C19.9145 18.2857 19.1431 19.0571 18.2002 19.0571H4.48591C3.54305 19.0571 2.77162 18.2857 2.77162 17.3428V8.77141H5.34305ZM11.3431 16.4857C13.7088 16.4857 15.6288 14.5657 15.6288 12.2C15.6288 9.83427 13.7088 7.91427 11.3431 7.91427C8.97734 7.91427 7.05734 9.83427 7.05734 12.2C7.05734 14.5657 8.97734 16.4857 11.3431 16.4857ZM8.60019 12.2C8.60019 13.7171 9.82591 14.9428 11.3431 14.9428C12.8602 14.9428 14.0859 13.7171 14.0859 12.2C14.0859 10.6828 12.8602 9.45713 11.3431 9.45713C9.82591 9.45713 8.60019 10.6828 8.60019 12.2Z" fill="black" fill-opacity="0.87"/>
</g>
<defs>
<clipPath id="clip0_603_5412">
<rect width="20.5714" height="20.5714" fill="white" transform="translate(0.200195 0.200195)"/>
</clipPath>
</defs>
</svg>
