<svg width="44" height="44" viewBox="0 0 44 44" fill="none" xmlns="http://www.w3.org/2000/svg">
<path d="M13.0734 3.34503L10.3 0.0300293L0.333374 8.3717L3.12837 11.6867L13.0734 3.34503ZM43.6667 8.39336L33.7 0.0300293L30.905 3.34503L40.8717 11.7084L43.6667 8.39336ZM22 4.6667C11.2317 4.6667 2.50004 13.3984 2.50004 24.1667C2.50004 34.935 11.21 43.6667 22 43.6667C32.7684 43.6667 41.5 34.935 41.5 24.1667C41.5 13.3984 32.7684 4.6667 22 4.6667ZM22 39.3334C13.615 39.3334 6.83337 32.5517 6.83337 24.1667C6.83337 15.7817 13.615 9.00003 22 9.00003C30.385 9.00003 37.1667 15.7817 37.1667 24.1667C37.1667 32.5517 30.385 39.3334 22 39.3334ZM24.1667 15.5H19.8334V22H13.3334V26.3334H19.8334V32.8334H24.1667V26.3334H30.6667V22H24.1667V15.5Z" fill="#4285F4" fill-opacity="0.87"/>
</svg>
