<svg width="40" height="40" viewBox="0 0 40 40" fill="none" xmlns="http://www.w3.org/2000/svg">
<path d="M40 7.66634L30.8 0L28.22 3.03873L37.42 10.7051L40 7.66634ZM11.76 3.03873L9.2 0L0 7.64647L2.58 10.6852L11.76 3.03873ZM21 12.1946H18V24.1112L27.5 29.7716L29 27.3287L21 22.6216V12.1946ZM20 4.25025C10.06 4.25025 2 12.2542 2 22.1251C2 31.996 10.04 40 20 40C29.94 40 38 31.996 38 22.1251C38 12.2542 29.94 4.25025 20 4.25025ZM20 36.0278C12.26 36.0278 6 29.8113 6 22.1251C6 14.4389 12.26 8.22244 20 8.22244C27.74 8.22244 34 14.4389 34 22.1251C34 29.8113 27.74 36.0278 20 36.0278Z" fill="#DB4437" fill-opacity="0.87"/>
</svg>
