<svg width="16" height="22" viewBox="0 0 16 22" fill="none" xmlns="http://www.w3.org/2000/svg">
<path d="M8 16.2926C9.1 16.2926 10 15.3926 10 14.2926C10 13.1926 9.1 12.2926 8 12.2926C6.9 12.2926 6 13.1926 6 14.2926C6 15.3926 6.9 16.2926 8 16.2926ZM14 7.29257H13V5.29257C13 2.53257 10.76 0.292572 8 0.292572C5.24 0.292572 3 2.53257 3 5.29257V7.29257H2C0.9 7.29257 0 8.19257 0 9.29257V19.2926C0 20.3926 0.9 21.2926 2 21.2926H14C15.1 21.2926 16 20.3926 16 19.2926V9.29257C16 8.19257 15.1 7.29257 14 7.29257ZM4.9 5.29257C4.9 3.58257 6.29 2.19257 8 2.19257C9.71 2.19257 11.1 3.58257 11.1 5.29257V7.29257H4.9V5.29257ZM14 19.2926H2V9.29257H14V19.2926Z" fill="#4285F4"/>
</svg>
