<svg width="3" height="9" viewBox="0 0 3 9" fill="none" xmlns="http://www.w3.org/2000/svg">
<path d="M1.06667 2.13333C1.65333 2.13333 2.13333 1.65333 2.13333 1.06667C2.13333 0.48 1.65333 0 1.06667 0C0.48 0 0 0.48 0 1.06667C0 1.65333 0.48 2.13333 1.06667 2.13333ZM1.06667 3.2C0.48 3.2 0 3.68 0 4.26667C0 4.85333 0.48 5.33333 1.06667 5.33333C1.65333 5.33333 2.13333 4.85333 2.13333 4.26667C2.13333 3.68 1.65333 3.2 1.06667 3.2ZM1.06667 6.4C0.48 6.4 0 6.88 0 7.46667C0 8.05333 0.48 8.53333 1.06667 8.53333C1.65333 8.53333 2.13333 8.05333 2.13333 7.46667C2.13333 6.88 1.65333 6.4 1.06667 6.4Z" fill="#4285F4" fill-opacity="0.87"/>
</svg>
