<svg width="408" height="50" viewBox="0 0 408 50" fill="none" xmlns="http://www.w3.org/2000/svg">
<g clip-path="url(#clip0_969_10886)">
<path d="M63.7714 19.4527C62.3902 18.6691 61.247 17.5259 60.4634 16.1446C59.6561 14.7263 59.2423 13.1181 59.2648 11.4862C59.2417 9.8543 59.6555 8.2459 60.4634 6.8278C61.246 5.44579 62.3894 4.30239 63.7714 3.51977C65.1612 2.72091 66.739 2.30717 68.3419 2.32121C69.5895 2.31244 70.8269 2.54581 71.9856 3.00838C73.0578 3.42429 74.0162 4.08832 74.7822 4.94606L73.288 6.44027C72.7188 5.73548 71.9808 5.1858 71.1426 4.84218C70.2565 4.47364 69.3056 4.28618 68.3459 4.29084C67.1379 4.28854 65.9499 4.59965 64.8981 5.19376C63.8281 5.78939 62.9391 6.66321 62.3252 7.72273C61.6632 8.86473 61.3274 10.1665 61.3543 11.4862C61.3274 12.8059 61.6632 14.1077 62.3252 15.2497C62.9405 16.3071 63.8293 17.1793 64.8981 17.7747C65.8733 18.2969 66.9514 18.5984 68.056 18.6578C69.1607 18.7172 70.2649 18.533 71.2904 18.1183C72.0637 17.763 72.7652 17.2687 73.3599 16.66C73.8024 16.1708 74.1517 15.6048 74.3907 14.99C74.6578 14.3081 74.8143 13.5879 74.8541 12.8566H68.3819V10.9229H76.8158C76.8955 11.3431 76.937 11.7697 76.9396 12.1974C76.9411 13.2679 76.767 14.3314 76.4242 15.3456C76.0893 16.3543 75.5276 17.2727 74.7822 18.0304C73.1362 19.7803 70.9894 20.6552 68.3419 20.6552C66.7388 20.6661 65.1616 20.2511 63.7714 19.4527Z" fill="#656C73"/>
<path d="M81.5301 19.8082C80.5895 19.2522 79.8218 18.4458 79.3128 17.479C78.7739 16.4648 78.4991 15.3313 78.5137 14.183C78.4991 13.0346 78.7739 11.9011 79.3128 10.8869C79.8218 9.92008 80.5895 9.11369 81.5301 8.55771C82.5118 8.00241 83.6204 7.71057 84.7483 7.71057C85.8761 7.71057 86.9847 8.00241 87.9664 8.55771C88.9122 9.11094 89.6844 9.91775 90.1957 10.8869C90.7345 11.9011 91.0093 13.0346 90.9948 14.183C91.0093 15.3313 90.7345 16.4648 90.1957 17.479C89.6844 18.4482 88.9122 19.255 87.9664 19.8082C86.9847 20.3635 85.8761 20.6553 84.7483 20.6553C83.6204 20.6553 82.5118 20.3635 81.5301 19.8082ZM86.7998 18.2101C87.4473 17.8272 87.9778 17.2746 88.334 16.612C88.7265 15.8749 88.9245 15.0499 88.9093 14.2149C88.9272 13.3733 88.7291 12.5411 88.334 11.7978C87.9771 11.1357 87.4468 10.5833 86.7998 10.1997C86.1837 9.80965 85.4714 9.59806 84.7423 9.58847C84.0217 9.58792 83.315 9.78706 82.7007 10.1638C82.0537 10.5473 81.5234 11.0998 81.1666 11.7619C80.7714 12.5052 80.5733 13.3373 80.5912 14.179C80.576 15.0139 80.7741 15.839 81.1666 16.5761C81.5227 17.2386 82.0532 17.7912 82.7007 18.1742C83.3129 18.559 84.0192 18.7677 84.7423 18.7774C85.4676 18.776 86.1789 18.5771 86.7998 18.2021V18.2101Z" fill="#656C73"/>
<path d="M95.4295 19.8082C94.4889 19.2522 93.7212 18.4458 93.2122 17.479C92.6734 16.4648 92.3986 15.3313 92.4131 14.183C92.3986 13.0346 92.6734 11.9011 93.2122 10.8869C93.7212 9.92008 94.4889 9.11369 95.4295 8.55771C96.4112 8.00241 97.5198 7.71057 98.6477 7.71057C99.7755 7.71057 100.884 8.00241 101.866 8.55771C102.812 9.11094 103.584 9.91775 104.095 10.8869C104.634 11.9011 104.909 13.0346 104.894 14.183C104.909 15.3313 104.634 16.4648 104.095 17.479C103.587 18.4466 102.819 19.2532 101.878 19.8082C100.896 20.3635 99.7875 20.6553 98.6597 20.6553C97.5318 20.6553 96.4232 20.3635 95.4415 19.8082H95.4295ZM100.703 18.2101C101.349 17.8258 101.877 17.2735 102.233 16.612C102.626 15.8749 102.824 15.0499 102.809 14.2149C102.827 13.3733 102.629 12.5411 102.233 11.7978C101.877 11.1369 101.348 10.5847 100.703 10.1997C100.085 9.81009 99.372 9.59857 98.6417 9.58847C97.9246 9.5876 97.2211 9.78386 96.6081 10.1558C95.9611 10.5394 95.4308 11.0918 95.074 11.7539C94.6788 12.4972 94.4807 13.3294 94.4986 14.171C94.4834 15.0059 94.6815 15.831 95.074 16.5681C95.4301 17.2307 95.9606 17.7833 96.6081 18.1662C97.2173 18.552 97.9207 18.7635 98.6417 18.7774C99.3684 18.7767 100.081 18.5778 100.703 18.2021V18.2101Z" fill="#656C73"/>
<path d="M108.742 24.8941C107.881 24.2858 107.224 23.4323 106.856 22.445L108.789 21.646C109.029 22.3559 109.49 22.9704 110.104 23.3999C110.76 23.8577 111.545 24.0942 112.345 24.0751C113.637 24.0751 114.63 23.6995 115.326 22.9484C116.021 22.2013 116.364 21.1546 116.364 19.8082V18.4977H116.261C115.836 19.1461 115.255 19.6766 114.571 20.0399C113.804 20.4579 112.942 20.6699 112.07 20.6552C111.052 20.6589 110.056 20.3674 109.201 19.8162C108.305 19.2456 107.577 18.4473 107.092 17.5029C106.553 16.4799 106.279 15.3388 106.292 14.1829C106.279 13.0258 106.554 11.8835 107.092 10.8589C107.579 9.91554 108.306 9.11756 109.201 8.54569C110.057 7.99729 111.053 7.70737 112.07 7.71069C112.942 7.69657 113.803 7.90707 114.571 8.32196C115.255 8.68669 115.836 9.21854 116.261 9.8681H116.356V8.10222H118.354V19.7722C118.386 20.9581 118.111 22.1321 117.555 23.1801C117.068 24.0761 116.32 24.8023 115.41 25.2616C114.458 25.7365 113.408 25.9789 112.345 25.9688C111.058 26.0191 109.791 25.6411 108.742 24.8941ZM114.379 18.2101C115.003 17.8213 115.509 17.2685 115.841 16.612C116.222 15.856 116.41 15.0173 116.388 14.1709C116.414 13.3265 116.233 12.4886 115.861 11.7299C115.533 11.0706 115.026 10.5169 114.399 10.1318C113.796 9.77003 113.104 9.58199 112.401 9.58844C111.696 9.58264 111.004 9.77507 110.404 10.1438C109.782 10.5344 109.278 11.0868 108.945 11.7419C108.562 12.4974 108.373 13.3361 108.394 14.1829C108.373 15.0297 108.563 15.8683 108.945 16.624C109.277 17.2794 109.781 17.8319 110.404 18.2221C111.002 18.5853 111.689 18.7774 112.389 18.7774C113.089 18.7774 113.776 18.5853 114.375 18.2221L114.379 18.2101Z" fill="#656C73"/>
<path d="M121.171 2.70868H123.252V20.2596H121.171V2.70868Z" fill="#656C73"/>
<path d="M128.194 19.8203C127.272 19.2667 126.521 18.4689 126.025 17.515C125.485 16.4884 125.21 15.343 125.226 14.183C125.214 13.0574 125.468 11.9449 125.965 10.9349C126.43 9.97085 127.155 9.15583 128.058 8.58177C128.994 7.9935 130.081 7.69083 131.187 7.71081C132.274 7.68823 133.346 7.96463 134.287 8.50986C135.176 9.03963 135.887 9.82098 136.332 10.7552C136.824 11.7958 137.068 12.9364 137.044 14.0872C137.051 14.2524 137.035 14.4178 136.996 14.5786H127.347C127.354 15.3968 127.584 16.1977 128.01 16.8958C128.386 17.4937 128.914 17.9805 129.541 18.3061C130.128 18.611 130.78 18.7726 131.442 18.7775C132.982 18.7775 134.167 18.0264 134.998 16.5242L136.836 17.4072C136.328 18.3687 135.581 19.1832 134.666 19.7723C133.687 20.348 132.574 20.6565 131.438 20.667C130.302 20.6775 129.184 20.3897 128.194 19.8323V19.8203ZM134.85 12.8327C134.816 12.321 134.68 11.8212 134.451 11.3624C134.175 10.8424 133.76 10.4093 133.252 10.1119C132.614 9.74099 131.884 9.55945 131.147 9.58856C130.272 9.57459 129.423 9.8897 128.769 10.4715C128.087 11.0861 127.637 11.9171 127.495 12.8247L134.85 12.8327Z" fill="#656C73"/>
<path d="M145.026 2.70877H150.347C151.986 2.67063 153.607 3.05447 155.054 3.82343C156.362 4.53745 157.435 5.61583 158.142 6.9277C158.881 8.3316 159.252 9.89997 159.221 11.4862C159.252 13.0724 158.881 14.6407 158.142 16.0448C157.435 17.3554 156.362 18.4325 155.054 19.145C153.607 19.914 151.986 20.2978 150.347 20.2597H145.026V2.70877ZM150.347 18.2901C152.422 18.2901 154.064 17.6948 155.274 16.5042C156.483 15.3136 157.087 13.6463 157.087 11.5022C157.087 9.37144 156.483 7.7041 155.274 6.50022C154.064 5.29633 152.422 4.69971 150.347 4.71036H147.111V18.2941L150.347 18.2901Z" fill="#656C73"/>
<path d="M163.935 19.8203C163.013 19.2667 162.263 18.4689 161.766 17.515C161.226 16.4884 160.951 15.343 160.967 14.183C160.954 13.0577 161.206 11.9452 161.702 10.9349C162.169 9.96982 162.897 9.15469 163.804 8.58177C164.739 7.9935 165.827 7.69083 166.932 7.71081C168.019 7.68823 169.091 7.96463 170.032 8.50986C170.921 9.03963 171.633 9.82098 172.078 10.7552C172.57 11.7958 172.813 12.9364 172.789 14.0872C172.796 14.2524 172.78 14.4178 172.741 14.5786H163.088C163.094 15.3971 163.323 16.1985 163.752 16.8958C164.127 17.4937 164.655 17.9805 165.282 18.3061C165.87 18.611 166.521 18.7726 167.183 18.7775C168.718 18.7775 169.903 18.0264 170.739 16.5242L172.577 17.4072C172.069 18.3687 171.322 19.1832 170.408 19.7723C169.428 20.348 168.315 20.6565 167.18 20.667C166.044 20.6775 164.925 20.3897 163.935 19.8323V19.8203ZM170.595 12.8327C170.554 12.3196 170.412 11.8199 170.176 11.3624C169.902 10.8412 169.486 10.4078 168.977 10.1119C168.344 9.74393 167.62 9.56249 166.888 9.58856C166.006 9.56954 165.15 9.88498 164.491 10.4715C163.808 11.0861 163.358 11.9171 163.216 12.8247L170.595 12.8327Z" fill="#656C73"/>
<path d="M173.288 8.10223H175.541L179.269 17.8106H179.317L183.092 8.10223H185.298L180.324 20.2596H178.214L173.288 8.10223Z" fill="#656C73"/>
<path d="M189.109 19.8202C188.187 19.2666 187.436 18.4688 186.94 17.515C186.401 16.4877 186.127 15.3427 186.141 14.183C186.128 13.0577 186.38 11.9451 186.876 10.9349C187.343 9.97132 188.07 9.15664 188.973 8.58169C189.908 7.99396 190.994 7.6913 192.097 7.71074C193.185 7.68774 194.257 7.96417 195.198 8.50978C196.088 9.03932 196.801 9.82062 197.247 10.7551C197.737 11.7963 197.981 12.9365 197.958 14.0871C197.965 14.2525 197.947 14.418 197.906 14.5785H188.266C188.27 15.3966 188.498 16.198 188.925 16.8957C189.303 17.4933 189.832 17.9799 190.459 18.306C191.046 18.6109 191.696 18.7724 192.357 18.7775C193.894 18.7775 195.079 18.0264 195.913 16.5242L197.751 17.4071C197.242 18.3686 196.495 19.1831 195.581 19.7723C194.602 20.3479 193.489 20.6564 192.353 20.6669C191.217 20.6774 190.099 20.3896 189.109 19.8322V19.8202ZM195.765 12.8326C195.732 12.3206 195.597 11.8205 195.366 11.3624C195.091 10.8414 194.676 10.4081 194.167 10.1119C193.531 9.74103 192.802 9.55947 192.066 9.58848C191.19 9.57373 190.342 9.88894 189.688 10.4714C189.006 11.086 188.556 11.917 188.414 12.8246L195.765 12.8326Z" fill="#656C73"/>
<path d="M200.08 2.70868H202.157V20.2596H200.08V2.70868Z" fill="#656C73"/>
<path d="M207.163 19.8082C206.226 19.2511 205.461 18.4448 204.954 17.479C204.415 16.4648 204.141 15.3313 204.155 14.183C204.141 13.0346 204.415 11.9011 204.954 10.8869C205.463 9.92008 206.231 9.11369 207.171 8.55771C208.153 8.00241 209.262 7.71057 210.39 7.71057C211.517 7.71057 212.626 8.00241 213.608 8.55771C214.554 9.11094 215.326 9.91775 215.837 10.8869C216.376 11.9011 216.651 13.0346 216.636 14.183C216.651 15.3313 216.376 16.4648 215.837 17.479C215.326 18.4482 214.554 19.255 213.608 19.8082C212.626 20.3635 211.517 20.6553 210.39 20.6553C209.262 20.6553 208.153 20.3635 207.171 19.8082H207.163ZM212.437 18.2101C213.083 17.8258 213.611 17.2735 213.967 16.612C214.36 15.8749 214.558 15.0499 214.543 14.2149C214.561 13.3733 214.362 12.5411 213.967 11.7978C213.611 11.1369 213.082 10.5847 212.437 10.1997C211.819 9.81009 211.106 9.59857 210.376 9.58847C209.659 9.5876 208.955 9.78386 208.342 10.1558C207.695 10.5385 207.166 11.0912 206.812 11.7539C206.414 12.4962 206.214 13.3288 206.233 14.171C206.217 15.0065 206.416 15.832 206.812 16.5681C207.166 17.2312 207.695 17.7841 208.342 18.1662C208.951 18.552 209.655 18.7635 210.376 18.7774C211.102 18.7767 211.815 18.5778 212.437 18.2021V18.2101Z" fill="#656C73"/>
<path d="M218.538 8.10233H220.535V9.89219H220.631C221.057 9.241 221.638 8.70563 222.321 8.33406C223.103 7.90729 223.983 7.69244 224.874 7.7108C225.887 7.71072 226.878 8.00498 227.727 8.55779C228.619 9.13182 229.347 9.92925 229.836 10.871C230.374 11.8913 230.648 13.0297 230.635 14.183C230.649 15.3351 230.374 16.4723 229.836 17.4911C229.348 18.4347 228.62 19.2337 227.727 19.8083C226.867 20.3661 225.863 20.6605 224.838 20.6553C223.943 20.6738 223.059 20.4575 222.273 20.028C221.579 19.657 221 19.1047 220.595 18.4299H220.499L220.595 20.1239V25.5694H218.538V8.10233ZM226.528 18.2022C227.154 17.8126 227.662 17.2602 227.998 16.6041C228.376 15.8623 228.565 15.0391 228.55 14.207C228.568 13.3682 228.378 12.538 227.998 11.7899C227.661 11.1343 227.153 10.582 226.528 10.1918C225.933 9.80465 225.24 9.59536 224.53 9.58855C223.826 9.5841 223.135 9.77495 222.533 10.1399C221.902 10.5246 221.391 11.0781 221.059 11.738C220.68 12.4949 220.492 13.3329 220.511 14.179C220.495 15.0198 220.682 15.852 221.059 16.6041C221.391 17.2645 221.901 17.8182 222.533 18.2022C223.132 18.5756 223.824 18.7748 224.53 18.7775C225.237 18.7773 225.929 18.5779 226.528 18.2022Z" fill="#656C73"/>
<path d="M235.489 19.8202C234.568 19.2666 233.817 18.4688 233.32 17.515C232.782 16.4877 232.507 15.3427 232.521 14.183C232.509 13.0577 232.76 11.9452 233.256 10.9349C233.724 9.97135 234.45 9.15667 235.354 8.58172C236.299 7.9872 237.398 7.68427 238.514 7.71077C239.601 7.68777 240.674 7.9642 241.614 8.50981C242.504 9.03935 243.217 9.82065 243.664 10.7551C244.154 11.7964 244.397 12.9366 244.375 14.0871C244.381 14.2526 244.364 14.4181 244.323 14.5785H234.646C234.65 15.3966 234.878 16.198 235.306 16.8957C235.683 17.4933 236.213 17.9799 236.84 18.3061C237.426 18.6109 238.077 18.7725 238.738 18.7775C240.277 18.7775 241.462 18.0264 242.293 16.5242L244.131 17.4071C243.623 18.3686 242.876 19.1831 241.962 19.7723C240.983 20.3479 239.869 20.6564 238.734 20.667C237.598 20.6775 236.479 20.3896 235.489 19.8322V19.8202ZM242.145 12.8326C242.113 12.3206 241.977 11.8205 241.746 11.3624C241.472 10.8414 241.056 10.4081 240.547 10.1119C239.911 9.74106 239.182 9.5595 238.446 9.58852C237.564 9.56869 236.707 9.88424 236.049 10.4715C235.366 11.086 234.916 11.9171 234.774 12.8246L242.145 12.8326Z" fill="#656C73"/>
<path d="M246.46 8.10223H248.458V10.0998H248.558C248.81 9.38544 249.303 8.78099 249.952 8.38988C250.577 7.95898 251.314 7.72013 252.073 7.70271C252.558 7.698 253.04 7.78055 253.496 7.94641V10.1877C252.965 9.92113 252.375 9.7946 251.782 9.82016C251.21 9.8207 250.652 9.99638 250.184 10.3236C249.677 10.6611 249.265 11.1216 248.985 11.662C248.69 12.2219 248.539 12.8467 248.546 13.4798V20.2716H246.46V8.10223Z" fill="#656C73"/>
<path d="M262.629 20.1039C261.794 19.7353 261.05 19.1901 260.447 18.5058C259.799 17.7597 259.333 16.8736 259.085 15.9169L261.083 15.1179C261.33 16.1103 261.869 17.0062 262.629 17.6908C263.343 18.3473 264.28 18.7073 265.25 18.6976C266.185 18.7276 267.103 18.4372 267.85 17.8746C268.192 17.6072 268.464 17.2611 268.642 16.866C268.821 16.4708 268.902 16.0383 268.877 15.6053C268.888 15.2245 268.815 14.846 268.663 14.4966C268.511 14.1472 268.284 13.8356 267.998 13.5837C267.122 12.9102 266.128 12.4074 265.066 12.1015L263.963 11.702C262.843 11.3313 261.809 10.7389 260.923 9.96005C260.524 9.57576 260.212 9.10983 260.009 8.59409C259.806 8.07835 259.717 7.52493 259.748 6.97164C259.744 6.14844 259.983 5.34238 260.435 4.65442C260.907 3.9298 261.562 3.34266 262.333 2.95246C263.177 2.51769 264.116 2.29811 265.066 2.31323C265.984 2.29243 266.895 2.48527 267.727 2.87655C268.42 3.20334 269.038 3.67146 269.54 4.2509C269.949 4.71775 270.261 5.26088 270.459 5.84898L268.522 6.67999C268.302 5.96006 267.847 5.3346 267.23 4.90364C266.613 4.47269 265.869 4.26114 265.118 4.30284C264.285 4.28106 263.47 4.54938 262.813 5.06193C262.513 5.28236 262.27 5.57086 262.104 5.9036C261.938 6.23634 261.854 6.60379 261.858 6.97563C261.849 7.2985 261.917 7.6188 262.056 7.9104C262.195 8.20201 262.401 8.45667 262.657 8.65362C263.402 9.18673 264.231 9.59181 265.11 9.85218L266.236 10.2517C267.528 10.6762 268.717 11.3646 269.728 12.2733C270.16 12.7051 270.496 13.2227 270.714 13.7925C270.933 14.3623 271.03 14.9717 270.999 15.5813C271.034 16.5989 270.727 17.599 270.128 18.4219C269.567 19.1781 268.808 19.7644 267.934 20.1159C267.064 20.4736 266.131 20.6568 265.19 20.6552C264.307 20.6553 263.434 20.4674 262.629 20.1039Z" fill="#656C73"/>
<path d="M276.069 20.4035C275.673 20.249 275.311 20.0198 275.002 19.7283C274.679 19.4183 274.432 19.0383 274.279 18.6176C274.114 18.1316 274.036 17.6205 274.047 17.1074V9.98799H271.89V8.10226H274.047V4.47461H276.105V8.10226H279.097V9.98799H276.105V16.612C276.055 17.1606 276.196 17.7094 276.504 18.1662C276.656 18.3544 276.851 18.5029 277.073 18.5989C277.295 18.6949 277.537 18.7356 277.779 18.7175C278.243 18.7282 278.701 18.6092 279.101 18.3739V20.3715C278.859 20.4654 278.609 20.535 278.354 20.5793C278.042 20.6281 277.727 20.6495 277.411 20.6432C276.952 20.6497 276.497 20.5683 276.069 20.4035Z" fill="#656C73"/>
<path d="M282.337 19.3527C281.562 18.4898 281.17 17.2872 281.17 15.757V8.10223H283.26V15.4095C283.26 17.6468 284.265 18.7654 286.276 18.7654C286.921 18.7728 287.552 18.5756 288.078 18.2021C288.607 17.8268 289.028 17.32 289.301 16.7319C289.587 16.1346 289.734 15.4804 289.732 14.8182V8.10223H291.79V20.2596H289.828V18.4458H289.732C289.337 19.1039 288.775 19.6457 288.102 20.0159C287.393 20.4354 286.585 20.6562 285.761 20.6552C284.255 20.6552 283.112 20.2197 282.337 19.3527Z" fill="#656C73"/>
<path d="M296.688 19.8201C295.793 19.248 295.067 18.4483 294.582 17.5029C294.045 16.4795 293.771 15.3387 293.783 14.1829C293.771 13.0259 294.046 11.8839 294.582 10.8589C295.067 9.91503 295.794 9.11676 296.688 8.54567C297.551 7.99367 298.556 7.70365 299.58 7.71068C300.471 7.69615 301.35 7.91077 302.133 8.33393C302.823 8.69652 303.406 9.23378 303.823 9.89206H303.923L303.823 8.22606V2.70868H305.885V20.2596H303.923V18.4458H303.823C303.416 19.1228 302.832 19.6754 302.133 20.0439C301.351 20.4701 300.471 20.6862 299.58 20.6711C298.554 20.6713 297.55 20.3759 296.688 19.8201ZM301.882 18.2221C302.512 17.8378 303.021 17.284 303.352 16.624C303.732 15.873 303.923 15.0405 303.907 14.1989C303.926 13.3519 303.735 12.5135 303.352 11.7578C303.021 11.0983 302.511 10.5447 301.882 10.1597C301.28 9.7948 300.588 9.60395 299.884 9.6084C299.178 9.60447 298.485 9.80121 297.886 10.1757C297.261 10.5659 296.753 11.1182 296.416 11.7738C296.036 12.5219 295.847 13.3521 295.865 14.1909C295.85 15.023 296.039 15.8462 296.416 16.588C296.752 17.2441 297.261 17.7965 297.886 18.1861C298.486 18.5576 299.179 18.7528 299.884 18.7494C300.592 18.7617 301.289 18.5763 301.898 18.2141L301.882 18.2221Z" fill="#656C73"/>
<path d="M310.847 19.8203C309.925 19.2667 309.174 18.4689 308.678 17.515C308.138 16.4884 307.863 15.343 307.879 14.183C307.866 13.0577 308.118 11.9452 308.614 10.9349C309.079 9.97085 309.804 9.15583 310.707 8.58177C311.643 7.9935 312.73 7.69083 313.835 7.71081C314.923 7.68823 315.995 7.96463 316.936 8.50986C317.825 9.03963 318.536 9.82098 318.981 10.7552C319.473 11.7958 319.717 12.9364 319.692 14.0872C319.7 14.2524 319.683 14.4178 319.644 14.5786H310C310.007 15.3968 310.236 16.1977 310.663 16.8958C311.039 17.4937 311.567 17.9805 312.193 18.3061C312.781 18.611 313.433 18.7726 314.095 18.7775C315.632 18.7775 316.817 18.0264 317.651 16.5242L319.489 17.4072C318.98 18.3687 318.233 19.1832 317.319 19.7723C316.34 20.348 315.227 20.6565 314.091 20.667C312.955 20.6775 311.837 20.3897 310.847 19.8323V19.8203ZM317.503 12.8327C317.468 12.321 317.333 11.8212 317.104 11.3624C316.828 10.8424 316.413 10.4093 315.905 10.1119C315.267 9.74099 314.537 9.55945 313.799 9.58856C312.918 9.56954 312.061 9.88498 311.402 10.4715C310.72 11.0861 310.27 11.9171 310.128 12.8247L317.503 12.8327Z" fill="#656C73"/>
<path d="M321.818 8.10235H323.815V9.91618H323.911C324.292 9.25773 324.844 8.71504 325.509 8.34606C326.223 7.92868 327.036 7.70939 327.863 7.71082C329.349 7.71082 330.483 8.1423 331.259 9.00926C332.034 9.87622 332.421 11.0628 332.421 12.565V20.2598H330.364V12.8846C330.364 10.6926 329.342 9.59656 327.299 9.59656C326.665 9.58934 326.045 9.78844 325.533 10.1639C325.013 10.5415 324.6 11.0482 324.335 11.6341C324.049 12.2301 323.902 12.8829 323.903 13.5438V20.2598H321.822L321.818 8.10235Z" fill="#656C73"/>
<path d="M337.863 20.4035C337.466 20.2509 337.104 20.0215 336.796 19.7283C336.473 19.4183 336.226 19.0383 336.073 18.6176C335.907 18.1319 335.827 17.6207 335.837 17.1074V9.98799H333.68V8.10226H335.837V4.47461H337.899V8.10226H340.887V9.98799H337.899V16.612C337.852 17.1604 337.992 17.7085 338.298 18.1662C338.452 18.357 338.651 18.5071 338.877 18.6033C339.102 18.6994 339.348 18.7386 339.593 18.7175C340.055 18.7286 340.511 18.6111 340.911 18.3779V20.3755C340.67 20.4699 340.419 20.5395 340.164 20.5833C339.852 20.6321 339.537 20.6535 339.221 20.6472C338.757 20.6544 338.295 20.5717 337.863 20.4035Z" fill="#656C73"/>
<path d="M352.042 19.4526C350.674 18.6679 349.546 17.524 348.782 16.1446C347.981 14.7237 347.567 13.1172 347.583 11.4862C347.567 9.85508 347.98 8.24846 348.782 6.82775C349.548 5.44592 350.68 4.30153 352.054 3.51972C353.456 2.71542 355.048 2.30154 356.664 2.32116C357.903 2.30718 359.129 2.56208 360.26 3.06827C361.336 3.56267 362.29 4.2868 363.056 5.18972L361.586 6.63598C360.999 5.88824 360.249 5.2843 359.393 4.8701C358.526 4.48295 357.585 4.29065 356.636 4.30678C355.426 4.29898 354.234 4.60453 353.176 5.19372C352.116 5.78827 351.239 6.66142 350.639 7.71869C349.996 8.86691 349.67 10.1661 349.696 11.4822C349.67 12.7982 349.996 14.0974 350.639 15.2457C351.239 16.3035 352.117 17.1778 353.176 17.7746C354.24 18.3706 355.441 18.6791 356.66 18.6695C357.707 18.6737 358.741 18.4395 359.684 17.9848C360.626 17.53 361.453 16.8665 362.102 16.0447L363.596 17.5149C362.781 18.4925 361.759 19.2759 360.603 19.8082C359.249 20.4215 357.77 20.7088 356.284 20.647C354.799 20.5853 353.348 20.1762 352.05 19.4526H352.042Z" fill="#656C73"/>
<path d="M365.621 2.70868H367.707V20.2596H365.621V2.70868Z" fill="#656C73"/>
<path d="M371.554 19.3527C370.779 18.4898 370.392 17.2912 370.392 15.757V8.10223H372.473V15.4095C372.473 17.6468 373.479 18.7654 375.489 18.7654C376.135 18.7733 376.766 18.5761 377.291 18.2021C377.821 17.8271 378.244 17.3203 378.518 16.7319C378.803 16.1343 378.949 15.4801 378.945 14.8182V8.10223H381.007V20.2596H379.045V18.4458H378.945C378.55 19.1039 377.988 19.6457 377.315 20.0159C376.607 20.4359 375.798 20.6568 374.974 20.6552C373.493 20.6552 372.353 20.221 371.554 19.3527Z" fill="#656C73"/>
<path d="M387.599 20.0279C386.905 19.6568 386.325 19.1045 385.921 18.4298H385.821V20.2436H383.823V2.70868H385.937V8.22606L385.837 9.89206H385.937C386.363 9.24088 386.943 8.7055 387.627 8.33393C388.408 7.90715 389.286 7.69227 390.176 7.71068C391.202 7.7035 392.208 7.99803 393.068 8.55766C393.961 9.13169 394.688 9.92913 395.178 10.8709C395.716 11.8912 395.99 13.0296 395.977 14.1829C395.991 15.335 395.716 16.4722 395.178 17.4909C394.689 18.4346 393.962 19.2336 393.068 19.8082C392.207 20.3661 391.202 20.6604 390.176 20.6551C389.277 20.6759 388.388 20.4596 387.599 20.0279ZM391.842 18.2021C392.468 17.8125 392.976 17.2601 393.312 16.604C393.689 15.8622 393.879 15.039 393.863 14.2069C393.881 13.3681 393.692 12.5378 393.312 11.7898C392.975 11.1341 392.467 10.5819 391.842 10.1917C391.243 9.8178 390.55 9.6211 389.844 9.62438C389.14 9.62118 388.449 9.81193 387.847 10.1757C387.218 10.5625 386.71 11.1156 386.376 11.7738C385.995 12.5298 385.805 13.3682 385.825 14.2149C385.808 15.0561 385.997 15.8887 386.376 16.64C386.708 17.2991 387.217 17.8526 387.847 18.238C388.449 18.6018 389.14 18.7926 389.844 18.7894C390.552 18.7849 391.244 18.5814 391.842 18.2021Z" fill="#656C73"/>
<path d="M398.937 19.6724C398.079 19.0727 397.421 18.2273 397.052 17.2473L398.889 16.4483C399.169 17.1586 399.649 17.7722 400.272 18.2141C400.843 18.6134 401.524 18.8269 402.221 18.8254C402.908 18.8537 403.587 18.6756 404.171 18.314C404.397 18.19 404.586 18.0095 404.721 17.7904C404.856 17.5712 404.932 17.3208 404.942 17.0635C404.948 16.8324 404.899 16.6031 404.799 16.3946C404.699 16.1862 404.551 16.0046 404.367 15.865C403.771 15.4661 403.099 15.1941 402.393 15.0659L400.719 14.6464C399.856 14.4601 399.052 14.065 398.378 13.4958C398.061 13.2251 397.809 12.8861 397.641 12.5041C397.474 12.1221 397.395 11.7072 397.411 11.2904C397.394 10.5888 397.623 9.9034 398.058 9.35278C398.515 8.79687 399.112 8.37337 399.788 8.12625C400.541 7.84932 401.339 7.71388 402.141 7.72673C403.14 7.71459 404.125 7.96388 404.998 8.44986C405.825 8.89956 406.471 9.6226 406.824 10.4954L404.986 11.2944C404.75 10.7344 404.326 10.274 403.787 9.99201C403.236 9.71659 402.626 9.57948 402.01 9.59249C401.402 9.5844 400.804 9.7463 400.284 10.0599C400.057 10.1692 399.864 10.3389 399.728 10.5503C399.591 10.7618 399.515 11.0068 399.509 11.2585C399.501 11.455 399.544 11.6502 399.632 11.8261C399.72 12.002 399.85 12.153 400.012 12.2653C400.502 12.5769 401.043 12.8013 401.61 12.9285L403.424 13.368C404.437 13.5738 405.373 14.0533 406.133 14.7543C406.421 15.0413 406.649 15.3833 406.803 15.7601C406.957 16.1369 407.033 16.5407 407.028 16.9477C407.034 17.6333 406.82 18.3028 406.416 18.8574C405.976 19.4545 405.383 19.9212 404.698 20.2077C403.909 20.5462 403.056 20.7136 402.197 20.6992C401.028 20.7171 399.885 20.3569 398.937 19.6724Z" fill="#656C73"/>
<path d="M11.5222 11.7539L19.3768 7.21535C20.2647 6.70303 20.9127 5.85897 21.1784 4.86884C21.444 3.87871 21.3054 2.82362 20.7931 1.93568C20.2807 1.04774 19.4367 0.399685 18.4465 0.134077C17.4564 -0.13153 16.4013 0.0070676 15.5134 0.519381L1.92969 8.35798L11.5222 11.7539Z" fill="#EA4335"/>
<path d="M17.4431 23.4119C18.294 23.4115 19.121 23.1303 19.796 22.6121C20.4709 22.094 20.9562 21.3676 21.1764 20.5457C21.3967 19.7237 21.3397 18.8521 21.0144 18.0658C20.689 17.2796 20.1134 16.6225 19.3767 16.1966L5.79303 8.358C4.90832 7.89406 3.8784 7.79048 2.91901 8.06893C1.95963 8.34739 1.14521 8.98629 0.646358 9.85179C0.147504 10.7173 0.00291641 11.7423 0.242882 12.712C0.482847 13.6817 1.08875 14.521 1.93367 15.054L15.5174 22.8926C16.1024 23.2319 16.7667 23.4111 17.4431 23.4119Z" fill="#4285F4"/>
<path d="M30.9469 23.4119C31.6247 23.4123 32.2906 23.2331 32.8766 22.8925L46.4603 15.0539L36.9917 11.5861L29.0013 16.1925C28.2617 16.6181 27.6836 17.2763 27.3571 18.0646C27.0306 18.8529 26.9739 19.7271 27.196 20.5509C27.418 21.3748 27.9063 22.1021 28.5847 22.6195C29.2631 23.137 30.0937 23.4156 30.9469 23.4119Z" fill="#FBBC04"/>
<path d="M44.5186 15.5813C45.3699 15.5817 46.1975 15.3012 46.8731 14.7833C47.5488 14.2655 48.0347 13.5391 48.2554 12.717C48.4762 11.8948 48.4196 11.0228 48.0943 10.2361C47.769 9.44945 47.1932 8.79208 46.4563 8.36597L32.8766 0.519382C31.9886 0.0070676 30.9335 -0.13153 29.9434 0.134077C28.9533 0.399685 28.1092 1.04774 27.5969 1.93568C27.0846 2.82362 26.946 3.87871 27.2116 4.86884C27.4772 5.85897 28.1253 6.70303 29.0132 7.21535L42.5969 15.0539C43.1803 15.3949 43.8429 15.5768 44.5186 15.5813Z" fill="#34A853"/>
<path d="M67.7317 36.2869V37.4368H61.9602V36.2869H67.7317ZM62.1799 31.7019V42.366H60.7664V31.7019H62.1799ZM68.9622 31.7019V42.366H67.5559V31.7019H68.9622ZM77.9124 38.9749H79.3186C79.2454 39.6487 79.0525 40.2517 78.74 40.7839C78.4275 41.3162 77.9856 41.7385 77.4143 42.051C76.843 42.3586 76.1301 42.5125 75.2756 42.5125C74.6506 42.5125 74.0818 42.3953 73.5691 42.1609C73.0613 41.9265 72.6243 41.5945 72.2581 41.1648C71.8918 40.7302 71.6086 40.2102 71.4084 39.6047C71.2131 38.9944 71.1155 38.3157 71.1155 37.5686V36.5066C71.1155 35.7595 71.2131 35.0833 71.4084 34.4778C71.6086 33.8674 71.8943 33.345 72.2654 32.9104C72.6414 32.4758 73.093 32.1414 73.6204 31.907C74.1477 31.6726 74.741 31.5554 75.4001 31.5554C76.2058 31.5554 76.887 31.7068 77.4436 32.0095C78.0002 32.3123 78.4324 32.7322 78.74 33.2693C79.0525 33.8015 79.2454 34.4192 79.3186 35.1223H77.9124C77.844 34.6243 77.717 34.197 77.5315 33.8406C77.3459 33.4792 77.0823 33.2009 76.7405 33.0056C76.3987 32.8103 75.9519 32.7126 75.4001 32.7126C74.9265 32.7126 74.509 32.803 74.1477 32.9836C73.7913 33.1643 73.491 33.4207 73.2468 33.7527C73.0076 34.0847 72.8269 34.4827 72.7048 34.9465C72.5828 35.4104 72.5217 35.9255 72.5217 36.4919V37.5686C72.5217 38.0911 72.5754 38.5818 72.6829 39.0408C72.7952 39.4998 72.9636 39.9026 73.1882 40.2493C73.4128 40.5959 73.6985 40.8694 74.0452 41.0696C74.3918 41.2649 74.802 41.3625 75.2756 41.3625C75.8762 41.3625 76.3547 41.2673 76.7112 41.0769C77.0676 40.8865 77.3362 40.613 77.5168 40.2566C77.7024 39.9001 77.8342 39.4729 77.9124 38.9749ZM81.6917 31.7019H83.0613L86.5549 40.3958L90.0413 31.7019H91.4182L87.0823 42.366H86.0129L81.6917 31.7019ZM81.2449 31.7019H82.4534L82.6511 38.2058V42.366H81.2449V31.7019ZM90.6492 31.7019H91.8577V42.366H90.4514V38.2058L90.6492 31.7019ZM100.779 38.9749H102.185C102.112 39.6487 101.919 40.2517 101.606 40.7839C101.294 41.3162 100.852 41.7385 100.281 42.051C99.7092 42.3586 98.9963 42.5125 98.1418 42.5125C97.5168 42.5125 96.948 42.3953 96.4353 42.1609C95.9275 41.9265 95.4905 41.5945 95.1243 41.1648C94.7581 40.7302 94.4749 40.2102 94.2747 39.6047C94.0793 38.9944 93.9817 38.3157 93.9817 37.5686V36.5066C93.9817 35.7595 94.0793 35.0833 94.2747 34.4778C94.4749 33.8674 94.7605 33.345 95.1316 32.9104C95.5076 32.4758 95.9592 32.1414 96.4866 31.907C97.0139 31.6726 97.6072 31.5554 98.2664 31.5554C99.072 31.5554 99.7532 31.7068 100.31 32.0095C100.866 32.3123 101.299 32.7322 101.606 33.2693C101.919 33.8015 102.112 34.4192 102.185 35.1223H100.779C100.71 34.6243 100.583 34.197 100.398 33.8406C100.212 33.4792 99.9485 33.2009 99.6067 33.0056C99.2649 32.8103 98.8181 32.7126 98.2664 32.7126C97.7927 32.7126 97.3752 32.803 97.0139 32.9836C96.6575 33.1643 96.3572 33.4207 96.113 33.7527C95.8738 34.0847 95.6931 34.4827 95.571 34.9465C95.449 35.4104 95.3879 35.9255 95.3879 36.4919V37.5686C95.3879 38.0911 95.4417 38.5818 95.5491 39.0408C95.6614 39.4998 95.8298 39.9026 96.0544 40.2493C96.2791 40.5959 96.5647 40.8694 96.9114 41.0696C97.2581 41.2649 97.6682 41.3625 98.1418 41.3625C98.7424 41.3625 99.2209 41.2673 99.5774 41.0769C99.9338 40.8865 100.202 40.613 100.383 40.2566C100.569 39.9001 100.7 39.4729 100.779 38.9749ZM113.933 31.7019H115.339V38.9163C115.339 39.717 115.161 40.3835 114.804 40.9158C114.448 41.448 113.974 41.8484 113.384 42.1169C112.798 42.3806 112.16 42.5125 111.472 42.5125C110.749 42.5125 110.095 42.3806 109.509 42.1169C108.928 41.8484 108.467 41.448 108.125 40.9158C107.788 40.3835 107.619 39.717 107.619 38.9163V31.7019H109.018V38.9163C109.018 39.4729 109.121 39.9319 109.326 40.2932C109.531 40.6545 109.817 40.9231 110.183 41.0989C110.554 41.2747 110.984 41.3625 111.472 41.3625C111.965 41.3625 112.395 41.2747 112.761 41.0989C113.132 40.9231 113.42 40.6545 113.625 40.2932C113.83 39.9319 113.933 39.4729 113.933 38.9163V31.7019ZM118.708 36.1331V42.366H117.353V34.4412H118.635L118.708 36.1331ZM118.386 38.1033L117.822 38.0813C117.827 37.5393 117.907 37.0388 118.064 36.5798C118.22 36.116 118.44 35.7131 118.723 35.3713C119.006 35.0295 119.343 34.7659 119.734 34.5803C120.129 34.3899 120.566 34.2947 121.045 34.2947C121.435 34.2947 121.787 34.3484 122.099 34.4558C122.412 34.5583 122.678 34.7244 122.898 34.9539C123.122 35.1833 123.293 35.4812 123.41 35.8474C123.528 36.2087 123.586 36.6506 123.586 37.1731V42.366H122.224V37.1584C122.224 36.7434 122.163 36.4114 122.041 36.1624C121.919 35.9084 121.74 35.7253 121.506 35.613C121.272 35.4958 120.984 35.4373 120.642 35.4373C120.305 35.4373 119.997 35.5081 119.719 35.6497C119.446 35.7913 119.209 35.9866 119.009 36.2356C118.813 36.4846 118.659 36.7703 118.547 37.0925C118.44 37.4099 118.386 37.7468 118.386 38.1033ZM127.116 34.4412V42.366H125.754V34.4412H127.116ZM125.652 32.3391C125.652 32.1194 125.718 31.9338 125.849 31.7825C125.986 31.6311 126.186 31.5554 126.45 31.5554C126.709 31.5554 126.906 31.6311 127.043 31.7825C127.185 31.9338 127.256 32.1194 127.256 32.3391C127.256 32.5491 127.185 32.7297 127.043 32.8811C126.906 33.0276 126.709 33.1008 126.45 33.1008C126.186 33.1008 125.986 33.0276 125.849 32.8811C125.718 32.7297 125.652 32.5491 125.652 32.3391ZM131.701 41.1428L133.869 34.4412H135.254L132.405 42.366H131.496L131.701 41.1428ZM129.892 34.4412L132.126 41.1794L132.28 42.366H131.372L128.501 34.4412H129.892ZM139.743 42.5125C139.192 42.5125 138.691 42.4197 138.242 42.2341C137.798 42.0437 137.414 41.7776 137.092 41.4358C136.775 41.094 136.531 40.6887 136.36 40.22C136.189 39.7512 136.103 39.2385 136.103 38.6819V38.3743C136.103 37.7297 136.198 37.156 136.389 36.6531C136.579 36.1453 136.838 35.7156 137.165 35.364C137.492 35.0125 137.864 34.7463 138.279 34.5657C138.694 34.385 139.123 34.2947 139.568 34.2947C140.134 34.2947 140.622 34.3923 141.032 34.5876C141.448 34.783 141.787 35.0564 142.051 35.408C142.314 35.7546 142.51 36.1648 142.636 36.6384C142.763 37.1072 142.827 37.6199 142.827 38.1765V38.7844H136.909V37.6785H141.472V37.5759C141.452 37.2244 141.379 36.8826 141.252 36.5505C141.13 36.2185 140.935 35.9451 140.666 35.7302C140.398 35.5154 140.031 35.408 139.568 35.408C139.26 35.408 138.977 35.4739 138.718 35.6057C138.459 35.7327 138.237 35.9231 138.052 36.177C137.866 36.4309 137.722 36.741 137.619 37.1072C137.517 37.4734 137.466 37.8958 137.466 38.3743V38.6819C137.466 39.0579 137.517 39.4119 137.619 39.7439C137.727 40.071 137.881 40.3591 138.081 40.6082C138.286 40.8572 138.532 41.0525 138.821 41.1941C139.114 41.3357 139.446 41.4065 139.817 41.4065C140.295 41.4065 140.7 41.3088 141.032 41.1135C141.365 40.9182 141.655 40.657 141.904 40.3298L142.724 40.9817C142.553 41.2405 142.336 41.4871 142.073 41.7214C141.809 41.9558 141.484 42.1462 141.098 42.2927C140.718 42.4392 140.266 42.5125 139.743 42.5125ZM145.764 35.6863V42.366H144.409V34.4412H145.727L145.764 35.6863ZM148.24 34.3972L148.232 35.657C148.12 35.6326 148.012 35.6179 147.91 35.613C147.812 35.6033 147.7 35.5984 147.573 35.5984C147.26 35.5984 146.985 35.6472 146.745 35.7449C146.506 35.8425 146.303 35.9792 146.137 36.155C145.971 36.3308 145.84 36.5408 145.742 36.7849C145.649 37.0242 145.588 37.2878 145.559 37.5759L145.178 37.7957C145.178 37.3171 145.224 36.8679 145.317 36.448C145.415 36.0281 145.564 35.657 145.764 35.3347C145.964 35.0076 146.218 34.7537 146.526 34.573C146.838 34.3875 147.209 34.2947 147.639 34.2947C147.737 34.2947 147.849 34.3069 147.976 34.3313C148.103 34.3508 148.191 34.3728 148.24 34.3972ZM154.106 40.2639C154.106 40.0686 154.062 39.8879 153.974 39.7219C153.891 39.551 153.718 39.3972 153.454 39.2605C153.196 39.1189 152.805 38.9968 152.282 38.8943C151.843 38.8015 151.445 38.6917 151.089 38.5647C150.737 38.4377 150.437 38.2839 150.188 38.1033C149.944 37.9226 149.756 37.7102 149.624 37.4661C149.492 37.2219 149.426 36.9363 149.426 36.6091C149.426 36.2966 149.494 36.0012 149.631 35.7229C149.773 35.4446 149.97 35.198 150.224 34.9832C150.483 34.7683 150.793 34.5999 151.155 34.4778C151.516 34.3557 151.919 34.2947 152.363 34.2947C152.998 34.2947 153.54 34.407 153.989 34.6316C154.438 34.8562 154.782 35.1565 155.022 35.5325C155.261 35.9036 155.381 36.3162 155.381 36.7703H154.026C154.026 36.5505 153.96 36.3381 153.828 36.1331C153.701 35.9231 153.513 35.7498 153.264 35.613C153.02 35.4763 152.719 35.408 152.363 35.408C151.987 35.408 151.682 35.4666 151.448 35.5837C151.218 35.696 151.05 35.8401 150.942 36.0159C150.84 36.1917 150.788 36.3772 150.788 36.5725C150.788 36.719 150.813 36.8508 150.862 36.968C150.915 37.0803 151.008 37.1853 151.14 37.283C151.272 37.3757 151.457 37.4636 151.697 37.5466C151.936 37.6296 152.241 37.7126 152.612 37.7957C153.261 37.9421 153.796 38.1179 154.216 38.323C154.636 38.5281 154.948 38.7795 155.154 39.0774C155.359 39.3752 155.461 39.7366 155.461 40.1614C155.461 40.5081 155.388 40.8254 155.241 41.1135C155.1 41.4016 154.892 41.6506 154.619 41.8606C154.35 42.0657 154.028 42.2268 153.652 42.344C153.281 42.4563 152.864 42.5125 152.4 42.5125C151.701 42.5125 151.111 42.3879 150.627 42.1389C150.144 41.8899 149.778 41.5676 149.529 41.1721C149.28 40.7766 149.155 40.3591 149.155 39.9197H150.517C150.537 40.2908 150.644 40.5862 150.84 40.8059C151.035 41.0208 151.274 41.1746 151.557 41.2673C151.841 41.3552 152.121 41.3992 152.4 41.3992C152.771 41.3992 153.081 41.3503 153.33 41.2527C153.584 41.155 153.777 41.0208 153.908 40.8499C154.04 40.679 154.106 40.4836 154.106 40.2639ZM158.713 34.4412V42.366H157.351V34.4412H158.713ZM157.248 32.3391C157.248 32.1194 157.314 31.9338 157.446 31.7825C157.583 31.6311 157.783 31.5554 158.047 31.5554C158.305 31.5554 158.503 31.6311 158.64 31.7825C158.781 31.9338 158.852 32.1194 158.852 32.3391C158.852 32.5491 158.781 32.7297 158.64 32.8811C158.503 33.0276 158.305 33.1008 158.047 33.1008C157.783 33.1008 157.583 33.0276 157.446 32.8811C157.314 32.7297 157.248 32.5491 157.248 32.3391ZM164.206 34.4412V35.4812H159.922V34.4412H164.206ZM161.372 32.5149H162.727V40.4031C162.727 40.6716 162.768 40.8743 162.851 41.011C162.934 41.1477 163.042 41.238 163.174 41.282C163.305 41.3259 163.447 41.3479 163.598 41.3479C163.711 41.3479 163.828 41.3381 163.95 41.3186C164.077 41.2942 164.172 41.2747 164.236 41.26L164.243 42.366C164.135 42.4001 163.994 42.4319 163.818 42.4612C163.647 42.4954 163.44 42.5125 163.196 42.5125C162.864 42.5125 162.558 42.4465 162.28 42.3147C162.002 42.1829 161.78 41.9631 161.614 41.6555C161.452 41.343 161.372 40.9231 161.372 40.3958V32.5149ZM168.022 41.5457L170.227 34.4412H171.677L168.498 43.5891C168.425 43.7844 168.327 43.9944 168.205 44.219C168.088 44.4485 167.937 44.6658 167.751 44.8708C167.566 45.0759 167.341 45.2419 167.077 45.3689C166.819 45.5007 166.509 45.5667 166.147 45.5667C166.04 45.5667 165.903 45.552 165.737 45.5227C165.571 45.4934 165.454 45.469 165.385 45.4495L165.378 44.3508C165.417 44.3557 165.478 44.3606 165.561 44.3655C165.649 44.3752 165.71 44.3801 165.744 44.3801C166.052 44.3801 166.313 44.3386 166.528 44.2556C166.743 44.1775 166.924 44.0432 167.07 43.8528C167.221 43.6672 167.351 43.4109 167.458 43.0837L168.022 41.5457ZM166.404 34.4412L168.462 40.5935L168.813 42.0217L167.839 42.5198L164.924 34.4412H166.404ZM176.262 38.4915V38.323C176.262 37.7517 176.345 37.2219 176.511 36.7336C176.677 36.2405 176.916 35.8132 177.229 35.4519C177.541 35.0857 177.92 34.8025 178.364 34.6023C178.808 34.3972 179.306 34.2947 179.858 34.2947C180.415 34.2947 180.915 34.3972 181.36 34.6023C181.809 34.8025 182.19 35.0857 182.502 35.4519C182.82 35.8132 183.061 36.2405 183.227 36.7336C183.393 37.2219 183.476 37.7517 183.476 38.323V38.4915C183.476 39.0627 183.393 39.5925 183.227 40.0808C183.061 40.5691 182.82 40.9963 182.502 41.3625C182.19 41.7239 181.811 42.0071 181.367 42.2122C180.927 42.4124 180.429 42.5125 179.873 42.5125C179.316 42.5125 178.816 42.4124 178.371 42.2122C177.927 42.0071 177.546 41.7239 177.229 41.3625C176.916 40.9963 176.677 40.5691 176.511 40.0808C176.345 39.5925 176.262 39.0627 176.262 38.4915ZM177.617 38.323V38.4915C177.617 38.887 177.663 39.2605 177.756 39.6121C177.849 39.9587 177.988 40.2664 178.174 40.5349C178.364 40.8035 178.601 41.0159 178.884 41.1721C179.167 41.3235 179.497 41.3992 179.873 41.3992C180.244 41.3992 180.569 41.3235 180.847 41.1721C181.13 41.0159 181.365 40.8035 181.55 40.5349C181.736 40.2664 181.875 39.9587 181.968 39.6121C182.065 39.2605 182.114 38.887 182.114 38.4915V38.323C182.114 37.9324 182.065 37.5637 181.968 37.217C181.875 36.8655 181.733 36.5554 181.543 36.2869C181.357 36.0134 181.123 35.7986 180.84 35.6423C180.561 35.4861 180.234 35.408 179.858 35.408C179.487 35.408 179.16 35.4861 178.877 35.6423C178.598 35.7986 178.364 36.0134 178.174 36.2869C177.988 36.5554 177.849 36.8655 177.756 37.217C177.663 37.5637 177.617 37.9324 177.617 38.323ZM187.197 42.366H185.842V33.6062C185.842 33.0349 185.945 32.554 186.15 32.1633C186.36 31.7678 186.66 31.47 187.051 31.2698C187.441 31.0647 187.905 30.9622 188.442 30.9622C188.598 30.9622 188.755 30.9719 188.911 30.9915C189.072 31.011 189.228 31.0403 189.38 31.0793L189.306 32.1853C189.204 32.1609 189.087 32.1438 188.955 32.134C188.828 32.1243 188.701 32.1194 188.574 32.1194C188.286 32.1194 188.037 32.178 187.827 32.2952C187.622 32.4075 187.466 32.5735 187.358 32.7932C187.251 33.0129 187.197 33.2839 187.197 33.6062V42.366ZM188.882 34.4412V35.4812H184.59V34.4412H188.882ZM197.964 31.7019V42.366H196.572V31.7019H197.964ZM201.391 31.7019V32.8591H193.152V31.7019H201.391ZM205.324 42.5125C204.773 42.5125 204.272 42.4197 203.823 42.2341C203.379 42.0437 202.995 41.7776 202.673 41.4358C202.356 41.094 202.112 40.6887 201.941 40.22C201.77 39.7512 201.684 39.2385 201.684 38.6819V38.3743C201.684 37.7297 201.78 37.156 201.97 36.6531C202.16 36.1453 202.419 35.7156 202.746 35.364C203.073 35.0125 203.445 34.7463 203.86 34.5657C204.275 34.385 204.704 34.2947 205.149 34.2947C205.715 34.2947 206.203 34.3923 206.614 34.5876C207.029 34.783 207.368 35.0564 207.632 35.408C207.895 35.7546 208.091 36.1648 208.218 36.6384C208.344 37.1072 208.408 37.6199 208.408 38.1765V38.7844H202.49V37.6785H207.053V37.5759C207.033 37.2244 206.96 36.8826 206.833 36.5505C206.711 36.2185 206.516 35.9451 206.247 35.7302C205.979 35.5154 205.613 35.408 205.149 35.408C204.841 35.408 204.558 35.4739 204.299 35.6057C204.04 35.7327 203.818 35.9231 203.633 36.177C203.447 36.4309 203.303 36.741 203.2 37.1072C203.098 37.4734 203.047 37.8958 203.047 38.3743V38.6819C203.047 39.0579 203.098 39.4119 203.2 39.7439C203.308 40.071 203.462 40.3591 203.662 40.6082C203.867 40.8572 204.114 41.0525 204.402 41.1941C204.695 41.3357 205.027 41.4065 205.398 41.4065C205.876 41.4065 206.281 41.3088 206.614 41.1135C206.946 40.9182 207.236 40.657 207.485 40.3298L208.305 40.9817C208.135 41.2405 207.917 41.4871 207.654 41.7214C207.39 41.9558 207.065 42.1462 206.679 42.2927C206.299 42.4392 205.847 42.5125 205.324 42.5125ZM213.161 41.3992C213.484 41.3992 213.781 41.3333 214.055 41.2014C214.328 41.0696 214.553 40.8889 214.729 40.6594C214.905 40.425 215.005 40.1589 215.029 39.8611H216.318C216.294 40.3298 216.135 40.7668 215.842 41.1721C215.554 41.5725 215.176 41.8972 214.707 42.1462C214.238 42.3904 213.723 42.5125 213.161 42.5125C212.566 42.5125 212.046 42.4075 211.601 42.1975C211.162 41.9875 210.796 41.6995 210.503 41.3333C210.215 40.967 209.997 40.5471 209.851 40.0735C209.709 39.595 209.638 39.0896 209.638 38.5574V38.2498C209.638 37.7175 209.709 37.2146 209.851 36.741C209.997 36.2625 210.215 35.8401 210.503 35.4739C210.796 35.1077 211.162 34.8196 211.601 34.6096C212.046 34.3997 212.566 34.2947 213.161 34.2947C213.781 34.2947 214.323 34.4216 214.787 34.6755C215.251 34.9246 215.615 35.2664 215.879 35.7009C216.147 36.1306 216.294 36.6189 216.318 37.1658H215.029C215.005 36.8386 214.912 36.5432 214.751 36.2795C214.594 36.0159 214.38 35.8059 214.106 35.6497C213.838 35.4885 213.523 35.408 213.161 35.408C212.746 35.408 212.397 35.491 212.114 35.657C211.836 35.8181 211.614 36.0378 211.448 36.3162C211.286 36.5896 211.169 36.8948 211.096 37.2317C211.028 37.5637 210.993 37.9031 210.993 38.2498V38.5574C210.993 38.9041 211.028 39.2458 211.096 39.5828C211.164 39.9197 211.279 40.2249 211.44 40.4983C211.606 40.7717 211.828 40.9915 212.107 41.1575C212.39 41.3186 212.741 41.3992 213.161 41.3992ZM219.197 31.116V42.366H217.842V31.116H219.197ZM218.874 38.1033L218.31 38.0813C218.315 37.5393 218.396 37.0388 218.552 36.5798C218.708 36.116 218.928 35.7131 219.211 35.3713C219.494 35.0295 219.831 34.7659 220.222 34.5803C220.617 34.3899 221.054 34.2947 221.533 34.2947C221.924 34.2947 222.275 34.3484 222.588 34.4558C222.9 34.5583 223.166 34.7244 223.386 34.9539C223.611 35.1833 223.781 35.4812 223.899 35.8474C224.016 36.2087 224.074 36.6506 224.074 37.1731V42.366H222.712V37.1584C222.712 36.7434 222.651 36.4114 222.529 36.1624C222.407 35.9084 222.229 35.7253 221.994 35.613C221.76 35.4958 221.472 35.4373 221.13 35.4373C220.793 35.4373 220.486 35.5081 220.207 35.6497C219.934 35.7913 219.697 35.9866 219.497 36.2356C219.302 36.4846 219.148 36.7703 219.035 37.0925C218.928 37.4099 218.874 37.7468 218.874 38.1033ZM227.458 36.1331V42.366H226.103V34.4412H227.385L227.458 36.1331ZM227.136 38.1033L226.572 38.0813C226.577 37.5393 226.657 37.0388 226.814 36.5798C226.97 36.116 227.19 35.7131 227.473 35.3713C227.756 35.0295 228.093 34.7659 228.484 34.5803C228.879 34.3899 229.316 34.2947 229.795 34.2947C230.185 34.2947 230.537 34.3484 230.849 34.4558C231.162 34.5583 231.428 34.7244 231.648 34.9539C231.872 35.1833 232.043 35.4812 232.16 35.8474C232.278 36.2087 232.336 36.6506 232.336 37.1731V42.366H230.974V37.1584C230.974 36.7434 230.913 36.4114 230.791 36.1624C230.669 35.9084 230.49 35.7253 230.256 35.613C230.022 35.4958 229.734 35.4373 229.392 35.4373C229.055 35.4373 228.747 35.5081 228.469 35.6497C228.196 35.7913 227.959 35.9866 227.759 36.2356C227.563 36.4846 227.409 36.7703 227.297 37.0925C227.19 37.4099 227.136 37.7468 227.136 38.1033ZM234.035 38.4915V38.323C234.035 37.7517 234.118 37.2219 234.284 36.7336C234.45 36.2405 234.69 35.8132 235.002 35.4519C235.315 35.0857 235.693 34.8025 236.137 34.6023C236.582 34.3972 237.08 34.2947 237.632 34.2947C238.188 34.2947 238.689 34.3972 239.133 34.6023C239.582 34.8025 239.963 35.0857 240.276 35.4519C240.593 35.8132 240.835 36.2405 241.001 36.7336C241.167 37.2219 241.25 37.7517 241.25 38.323V38.4915C241.25 39.0627 241.167 39.5925 241.001 40.0808C240.835 40.5691 240.593 40.9963 240.276 41.3625C239.963 41.7239 239.585 42.0071 239.14 42.2122C238.701 42.4124 238.203 42.5125 237.646 42.5125C237.09 42.5125 236.589 42.4124 236.145 42.2122C235.7 42.0071 235.32 41.7239 235.002 41.3625C234.69 40.9963 234.45 40.5691 234.284 40.0808C234.118 39.5925 234.035 39.0627 234.035 38.4915ZM235.39 38.323V38.4915C235.39 38.887 235.437 39.2605 235.53 39.6121C235.622 39.9587 235.761 40.2664 235.947 40.5349C236.137 40.8035 236.374 41.0159 236.657 41.1721C236.941 41.3235 237.27 41.3992 237.646 41.3992C238.017 41.3992 238.342 41.3235 238.62 41.1721C238.904 41.0159 239.138 40.8035 239.323 40.5349C239.509 40.2664 239.648 39.9587 239.741 39.6121C239.839 39.2605 239.887 38.887 239.887 38.4915V38.323C239.887 37.9324 239.839 37.5637 239.741 37.217C239.648 36.8655 239.507 36.5554 239.316 36.2869C239.131 36.0134 238.896 35.7986 238.613 35.6423C238.335 35.4861 238.008 35.408 237.632 35.408C237.26 35.408 236.933 35.4861 236.65 35.6423C236.372 35.7986 236.137 36.0134 235.947 36.2869C235.761 36.5554 235.622 36.8655 235.53 37.217C235.437 37.5637 235.39 37.9324 235.39 38.323ZM244.421 31.116V42.366H243.059V31.116H244.421ZM246.238 38.4915V38.323C246.238 37.7517 246.321 37.2219 246.487 36.7336C246.653 36.2405 246.892 35.8132 247.204 35.4519C247.517 35.0857 247.895 34.8025 248.34 34.6023C248.784 34.3972 249.282 34.2947 249.834 34.2947C250.39 34.2947 250.891 34.3972 251.335 34.6023C251.784 34.8025 252.165 35.0857 252.478 35.4519C252.795 35.8132 253.037 36.2405 253.203 36.7336C253.369 37.2219 253.452 37.7517 253.452 38.323V38.4915C253.452 39.0627 253.369 39.5925 253.203 40.0808C253.037 40.5691 252.795 40.9963 252.478 41.3625C252.165 41.7239 251.787 42.0071 251.343 42.2122C250.903 42.4124 250.405 42.5125 249.848 42.5125C249.292 42.5125 248.791 42.4124 248.347 42.2122C247.903 42.0071 247.522 41.7239 247.204 41.3625C246.892 40.9963 246.653 40.5691 246.487 40.0808C246.321 39.5925 246.238 39.0627 246.238 38.4915ZM247.593 38.323V38.4915C247.593 38.887 247.639 39.2605 247.732 39.6121C247.824 39.9587 247.964 40.2664 248.149 40.5349C248.34 40.8035 248.576 41.0159 248.86 41.1721C249.143 41.3235 249.472 41.3992 249.848 41.3992C250.219 41.3992 250.544 41.3235 250.823 41.1721C251.106 41.0159 251.34 40.8035 251.526 40.5349C251.711 40.2664 251.85 39.9587 251.943 39.6121C252.041 39.2605 252.09 38.887 252.09 38.4915V38.323C252.09 37.9324 252.041 37.5637 251.943 37.217C251.85 36.8655 251.709 36.5554 251.518 36.2869C251.333 36.0134 251.098 35.7986 250.815 35.6423C250.537 35.4861 250.21 35.408 249.834 35.408C249.463 35.408 249.135 35.4861 248.852 35.6423C248.574 35.7986 248.34 36.0134 248.149 36.2869C247.964 36.5554 247.824 36.8655 247.732 37.217C247.639 37.5637 247.593 37.9324 247.593 38.323ZM260.285 34.4412H261.516V42.1975C261.516 42.8958 261.374 43.4915 261.091 43.9846C260.808 44.4778 260.412 44.8513 259.905 45.1052C259.402 45.364 258.821 45.4934 258.161 45.4934C257.888 45.4934 257.566 45.4495 257.195 45.3616C256.828 45.2786 256.467 45.1345 256.111 44.9294C255.759 44.7292 255.464 44.4583 255.224 44.1165L255.935 43.3108C256.267 43.7112 256.614 43.9895 256.975 44.1458C257.341 44.302 257.702 44.3801 258.059 44.3801C258.489 44.3801 258.86 44.2996 259.172 44.1384C259.485 43.9773 259.726 43.738 259.897 43.4207C260.073 43.1082 260.161 42.7224 260.161 42.2634V36.1843L260.285 34.4412ZM254.829 38.4915V38.3376C254.829 37.7322 254.9 37.1829 255.041 36.6897C255.188 36.1917 255.395 35.7644 255.664 35.408C255.937 35.0515 256.267 34.7781 256.653 34.5876C257.038 34.3923 257.473 34.2947 257.956 34.2947C258.454 34.2947 258.889 34.3826 259.26 34.5583C259.636 34.7292 259.953 34.9807 260.212 35.3127C260.476 35.6399 260.683 36.0354 260.835 36.4993C260.986 36.9631 261.091 37.488 261.15 38.074V38.7478C261.096 39.3289 260.991 39.8513 260.835 40.3152C260.683 40.7791 260.476 41.1746 260.212 41.5017C259.953 41.8289 259.636 42.0803 259.26 42.2561C258.884 42.427 258.445 42.5125 257.942 42.5125C257.468 42.5125 257.038 42.4124 256.653 42.2122C256.272 42.012 255.945 41.7312 255.671 41.3699C255.398 41.0085 255.188 40.5837 255.041 40.0955C254.9 39.6023 254.829 39.0676 254.829 38.4915ZM256.184 38.3376V38.4915C256.184 38.887 256.223 39.2581 256.301 39.6047C256.384 39.9514 256.509 40.2566 256.675 40.5203C256.845 40.7839 257.063 40.9915 257.326 41.1428C257.59 41.2893 257.905 41.3625 258.271 41.3625C258.72 41.3625 259.092 41.2673 259.385 41.0769C259.677 40.8865 259.909 40.635 260.08 40.3225C260.256 40.01 260.393 39.6707 260.49 39.3044V37.5393C260.437 37.2708 260.354 37.012 260.241 36.7629C260.134 36.509 259.992 36.2844 259.817 36.0891C259.646 35.8889 259.433 35.7302 259.179 35.613C258.926 35.4958 258.628 35.4373 258.286 35.4373C257.915 35.4373 257.595 35.5154 257.326 35.6716C257.063 35.823 256.845 36.033 256.675 36.3015C256.509 36.5652 256.384 36.8728 256.301 37.2244C256.223 37.571 256.184 37.9421 256.184 38.3376ZM265.801 41.5457L268.005 34.4412H269.455L266.277 43.5891C266.203 43.7844 266.106 43.9944 265.984 44.219C265.866 44.4485 265.715 44.6658 265.53 44.8708C265.344 45.0759 265.119 45.2419 264.856 45.3689C264.597 45.5007 264.287 45.5667 263.926 45.5667C263.818 45.5667 263.681 45.552 263.515 45.5227C263.349 45.4934 263.232 45.469 263.164 45.4495L263.156 44.3508C263.196 44.3557 263.257 44.3606 263.34 44.3655C263.427 44.3752 263.489 44.3801 263.523 44.3801C263.83 44.3801 264.092 44.3386 264.306 44.2556C264.521 44.1775 264.702 44.0432 264.848 43.8528C265 43.6672 265.129 43.4109 265.237 43.0837L265.801 41.5457ZM264.182 34.4412L266.24 40.5935L266.592 42.0217L265.617 42.5198L262.702 34.4412H264.182Z" fill="#656C73"/>
</g>
<defs>
<clipPath id="clip0_969_10886">
<rect width="407.052" height="50" fill="white"/>
</clipPath>
</defs>
</svg>
